PathFileType	4	(X/Y/Z)	F:\biomechanics\vid_Sports2D\vid_Sports2D_px_person00.trc
DataRate	CameraRate	NumFrames	NumMarkers	Units	OrigDataRate	OrigDataStartFrame	OrigNumFrames
250.0	250.0	10	22	m	250.0	606	808
Frame#	Time	Hip			RHip			RKnee			RAnkle			RBigToe			RSmallToe			RHeel			LHip			LKnee			LAnkle			LBigToe			LSmallToe			LHeel			Neck			Head			Nose			RShoulder			RElbow			RWrist			LShoulder			LElbow			LWrist			
		X1	Y1	Z1	X2	Y2	Z2	X3	Y3	Z3	X4	Y4	Z4	X5	Y5	Z5	X6	Y6	Z6	X7	Y7	Z7	X8	Y8	Z8	X9	Y9	Z9	X10	Y10	Z10	X11	Y11	Z11	X12	Y12	Z12	X13	Y13	Z13	X14	Y14	Z14	X15	Y15	Z15	X16	Y16	Z16	X17	Y17	Z17	X18	Y18	Z18	X19	Y19	Z19	X20	Y20	Z20	X21	Y21	Z21	X22	Y22	Z22
606	2.4270037174721195	297.25209596835117	235.3993867954106	0.0	303.84306456563866	234.16785785114578	0.0	321.5438310263589	312.531518375634	0.0	311.60249360491076	391.54593616749634	0.0	334.3520815762694	415.0856814144392	0.0	328.49870068833906	417.18967008211405	0.0	302.16315447983317	399.05535222061326	0.0	294.3131536179709	233.77938567866133	0.0	305.7928301375953	311.44185796513165	0.0	303.5594052967144	381.4689289129953	0.0	333.5566258470269	393.9098761289417	0.0	329.46450655905716	391.03768617209323	0.0	290.3362183864579	390.38049145329705	0.0	283.5814343193957	139.27053656645077	0.0	265.5944190933912	95.27311524863921	0.0	291.2226066846308	108.95821592247039	0.0	299.9055844865995	146.06051263328305	0.0	332.8614805521249	107.31121967773976	0.0	350.62223474671924	67.98674657876282	0.0	278.19774764557167	148.11730946552348	0.0	309.59242347012645	116.29835307984425	0.0	324.836322229905	80.4250847357203	0.0
607	2.4310086741016113	297.3908000018929	235.72944539380057	0.0	303.9691594192427	234.5310435009732	0.0	321.7514032008187	312.8851455894085	0.0	311.9779075253263	391.9262378022984	0.0	334.7510509563515	415.386286036494	0.0	328.89595420182354	417.51287766029833	0.0	302.58895528740516	399.4365356666626	0.0	294.46694293063155	234.13119962606478	0.0	305.97307863282015	311.7707677836728	0.0	303.9471501805548	381.82042994189965	0.0	333.94999254613316	394.1184377425	0.0	329.90462326398716	391.30640759488773	0.0	290.76938464825605	390.715700038411	0.0	283.79381506450795	139.59462998566184	0.0	266.02480574540385	95.5864198210456	0.0	291.4992417009586	109.33036188691129	0.0	300.15735832761624	146.41121329482473	0.0	333.2538743450053	107.67797013951768	0.0	351.1555219453113	68.48911091093477	0.0	278.3634579285793	148.58279764015793	0.0	309.91855563611523	116.9158229251036	0.0	325.2325351356697	81.05647341282422	0.0
608	2.435013630731103	297.53657898389883	236.07127456921188	0.0	304.09446187633336	234.90710414393425	0.0	321.95913105064284	313.2467280190604	0.0	312.35221295483143	392.31397902163735	0.0	335.15378210087965	415.69306215203585	0.0	329.29021675762596	417.8427647965177	0.0	303.0193221998	399.8224934069722	0.0	294.627211253601	234.4932569089161	0.0	306.16644403521167	312.10728850200815	0.0	304.33978381391927	382.1803465374615	0.0	334.34204296809503	394.3319193663163	0.0	330.34542983887195	391.5826527665122	0.0	291.21357110609915	391.055207888234	0.0	284.00556537685816	139.9252233258059	0.0	266.4493134540329	95.91145910771833	0.0	291.76768145208047	109.71020874049105	0.0	300.41046306824774	146.77249781599983	0.0	333.64695622601204	108.05556164991569	0.0	351.6874937989699	69.00480445056945	0.0	278.53239321305495	149.0485005366483	0.0	310.25439241778014	117.54598571448433	0.0	325.63490063288737	81.69157165421878	0.0
609	2.439018587360595	297.6891149243638	236.42469675197273	0.0	304.2186743020812	235.29505516016783	0.0	322.1667403431885	313.615466606017	0.0	312.7249221082716	392.70934454507744	0.0	335.56081421058633	416.0061486612689	0.0	329.6820145085422	418.17951266393743	0.0	303.45327973671994	400.21348206460743	0.0	294.7937282099654	234.86470765446037	0.0	306.3732469183169	312.4516109958753	0.0	304.73724716519104	382.54836582108675	0.0	334.73330098239956	394.5519969803244	0.0	330.786878578065	391.8684208964093	0.0	291.66930561323323	391.40013449042306	0.0	284.2161541493638	140.2628900426592	0.0	266.86693438886306	96.24842797173196	0.0	292.02721323263773	110.0978479196958	0.0	300.664340828695	147.14429757888553	0.0	334.0396076202911	108.4462500983902	0.0	352.21763558331446	69.5349445642019	0.0	278.70276778918435	149.51394056074247	0.0	310.59845978176105	118.18871513505408	0.0	326.0431754481828	82.33017090668426	0.0
610	2.443023543990087	297.8478332214442	236.78923935638386	0.0	304.3415320299228	235.6938769795895	0.0	322.3739550814963	313.99052812351084	0.0	313.09561001292064	393.11245808028855	0.0	335.97254251269396	416.32539469229994	0.0	330.0718767835217	418.523041180506	0.0	303.88960736252085	400.60980628413495	0.0	294.9658697419881	235.24465537178202	0.0	306.59382240468676	312.80396665579383	0.0	305.1394541664363	382.9243339286275	0.0	335.1244522719049	394.7807568041824	0.0	331.22909607432825	392.16575210621323	0.0	292.13688092252346	391.75167180626914	0.0	284.4250585348711	140.60808190537134	0.0	267.2768752423365	96.59732814186592	0.0	292.27731739627774	110.49329634718468	0.0	300.91831618472196	147.52652785124383	0.0	334.43076252399715	108.85242102785922	0.0	352.74537482200367	70.0806456640043	0.0	278.8728188456635	149.97899001243067	0.0	310.9488625725015	118.84409821002639	0.0	326.4571385977689	82.97248078531062	0.0
611	2.447028500619579	298.01192938110177	237.16419942675958	0.0	304.4628399592317	236.10249344353733	0.0	322.58054891510653	314.3711520845632	0.0	313.46387183886986	393.523338183217	0.0	336.3892551221572	416.65042041283846	0.0	330.4603387306529	418.87304239026616	0.0	304.32686770170193	401.0117240305964	0.0	295.14270648116207	235.6322198572681	0.0	306.8284579365848	313.16450540714175	0.0	305.5464284975226	383.3081083843012	0.0	335.516244920822	395.0202571918199	0.0	331.6722119917637	392.4765107477584	0.0	292.61633778173336	392.1109409467636	0.0	284.63178146710436	140.96120937496454	0.0	267.67847080875856	96.95806149410357	0.0	292.51777787374425	110.89654076494948	0.0	301.1716580516928	147.91906399994906	0.0	334.8194536274831	109.27628685490791	0.0	353.27012023085535	70.64286244070605	0.0	279.04084804100097	150.44388035441526	0.0	311.3032418080943	119.51238517669813	0.0	326.87639657555036	83.61924116710789	0.0
612	2.451033457249071	298.1804159580452	237.54875893681455	0.0	304.5824178662974	236.51979954998325	0.0	322.7863310832967	314.7567351986493	0.0	313.8292412742554	393.9419292582632	0.0	336.8111877319124	416.9808220353239	0.0	330.84799585648204	419.22912245396947	0.0	304.7634886306625	401.4194378933796	0.0	295.3231138754087	236.0266506812624	0.0	307.0772363188075	313.5332834707986	0.0	305.9583836345786	383.69954121333274	0.0	335.9093709458186	395.2723682700479	0.0	332.11620087210906	392.80251715262887	0.0	293.1075119651441	392.4789435250787	0.0	284.8357549822389	141.32267919595023	0.0	268.07089484099714	97.33055969247027	0.0	292.7486002624267	111.30753867616157	0.0	301.42351238654635	148.32175109269014	0.0	335.2047737340286	109.71972367900435	0.0	353.79138545426486	71.22223526043365	0.0	279.20518062833196	150.90908076542516	0.0	311.65892182076533	120.19383014290993	0.0	327.3003304630349	84.27147587212917	0.0
613	2.455038413878563	298.3522253985315	237.94218306043615	0.0	304.699992297231	236.9449111590052	0.0	322.9911112757027	315.1467985673491	0.0	314.1911969967108	394.36804559608856	0.0	337.2384229833112	417.3162037620657	0.0	331.23557471973623	419.5907208386501	0.0	305.1978875739933	401.8330937365631	0.0	295.50592164804243	236.42747739491776	0.0	307.3401407292558	313.9103340336143	0.0	306.37561321531217	384.0986288873341	0.0	336.30440943688717	395.5389249414398	0.0	332.560994548924	393.1457377922441	0.0	293.6101989786533	392.8565458335282	0.0	285.0363520731049	141.69273061735157	0.0	268.453177564085	97.71462073535601	0.0	292.9698816466544	111.72612965679676	0.0	301.67288593496886	148.73440805916638	0.0	335.5859282756566	110.18422083922906	0.0	354.3088569607822	71.81913002600808	0.0	279.36417625957927	151.37518211896955	0.0	312.0134439812112	120.88858669449014	0.0	327.72818771023026	84.93028788635412	0.0
614	2.4590433705080548	298.52633334591746	238.34397810236075	0.0	304.8151238650062	237.3773760959365	0.0	323.19470833538566	315.5409276174912	0.0	314.5492226169353	394.8013305995999	0.0	337.6707792768882	417.65615911435	0.0	331.62396519695164	419.9570139405334	0.0	305.62858646746383	402.25278627736037	0.0	295.6900470298653	236.83455341957398	0.0	307.6172508361221	314.29564543635564	0.0	306.7984084328692	384.5054830401294	0.0	336.7018004422214	395.82168987488	0.0	333.00666144657816	393.5081083875542	0.0	294.12428662321463	393.24442466976336	0.0	285.23299084305904	142.07135798441007	0.0	268.8244092922125	98.1097465967287	0.0	293.181721658074	112.1519982427778	0.0	301.9187705410992	149.15680514646925	0.0	335.96228296930883	110.6707587622954	0.0	354.8224274010228	72.43370724801436	0.0	279.51633449891403	151.84282555686664	0.0	312.364952383505	121.59664550650793	0.0	328.15914287201474	85.59677952628293	0.0
615	2.463048327137547	298.7017724828203	238.75378497963928	0.0	304.9272522459713	237.81701720147663	0.0	323.39700400780583	315.9387358734118	0.0	314.90283187659605	395.24139434145576	0.0	338.10790861506774	418.00041048112433	0.0	332.0141860364272	420.3271370359226	0.0	306.0542932728957	402.6786512761194	0.0	295.8745243171184	237.2478843027889	0.0	307.90861437872707	314.68910501906987	0.0	307.2270935477099	384.9201593456031	0.0	337.1018907961182	396.122170281415	0.0	333.4533727798711	393.89124350303643	0.0	294.6497711478041	393.6430992511863	0.0	285.42515256272856	142.45846747411653	0.0	269.1837688641696	98.51526440610904	0.0	293.3842096838765	112.58475037279545	0.0	302.160273804623	149.58867806291568	0.0	336.33334778627085	111.1796213028149	0.0	355.33223153617286	73.0658417144075	0.0	279.6603621872445	152.3127018469832	0.0	312.7119406180248	122.3178117359215	0.0	328.59227133959644	86.27196083355527	0.0
